<svg xmlns="http://www.w3.org/2000/svg" viewBox="0 0 64 64">
  <defs>
    <linearGradient id="brainGradient" x1="0%" y1="0%" x2="100%" y2="100%">
      <stop offset="0%" style="stop-color:#8b5cf6;stop-opacity:1" />
      <stop offset="100%" style="stop-color:#ec4899;stop-opacity:1" />
    </linearGradient>
  </defs>
  
  <!-- Background circle -->
  <circle cx="32" cy="32" r="30" fill="#1e293b"/>
  
  <!-- Neural network nodes -->
  <circle cx="20" cy="20" r="3" fill="url(#brainGradient)"/>
  <circle cx="32" cy="15" r="3" fill="url(#brainGradient)"/>
  <circle cx="44" cy="20" r="3" fill="url(#brainGradient)"/>
  
  <circle cx="15" cy="32" r="3" fill="url(#brainGradient)"/>
  <circle cx="32" cy="32" r="4" fill="url(#brainGradient)"/>
  <circle cx="49" cy="32" r="3" fill="url(#brainGradient)"/>
  
  <circle cx="20" cy="44" r="3" fill="url(#brainGradient)"/>
  <circle cx="32" cy="49" r="3" fill="url(#brainGradient)"/>
  <circle cx="44" cy="44" r="3" fill="url(#brainGradient)"/>
  
  <!-- Connections -->
  <line x1="20" y1="20" x2="32" y2="15" stroke="#8b5cf6" stroke-width="1.5" opacity="0.6"/>
  <line x1="32" y1="15" x2="44" y2="20" stroke="#8b5cf6" stroke-width="1.5" opacity="0.6"/>
  <line x1="20" y1="20" x2="15" y2="32" stroke="#8b5cf6" stroke-width="1.5" opacity="0.6"/>
  <line x1="44" y1="20" x2="49" y2="32" stroke="#8b5cf6" stroke-width="1.5" opacity="0.6"/>
  
  <line x1="15" y1="32" x2="32" y2="32" stroke="#a855f7" stroke-width="2" opacity="0.7"/>
  <line x1="32" y1="32" x2="49" y2="32" stroke="#a855f7" stroke-width="2" opacity="0.7"/>
  
  <line x1="32" y1="15" x2="32" y2="32" stroke="#a855f7" stroke-width="2" opacity="0.7"/>
  <line x1="32" y1="32" x2="32" y2="49" stroke="#a855f7" stroke-width="2" opacity="0.7"/>
  
  <line x1="15" y1="32" x2="20" y2="44" stroke="#ec4899" stroke-width="1.5" opacity="0.6"/>
  <line x1="49" y1="32" x2="44" y2="44" stroke="#ec4899" stroke-width="1.5" opacity="0.6"/>
  <line x1="20" y1="44" x2="32" y2="49" stroke="#ec4899" stroke-width="1.5" opacity="0.6"/>
  <line x1="44" y1="44" x2="32" y2="49" stroke="#ec4899" stroke-width="1.5" opacity="0.6"/>
  
  <line x1="20" y1="20" x2="32" y2="32" stroke="#a855f7" stroke-width="1.5" opacity="0.5"/>
  <line x1="44" y1="20" x2="32" y2="32" stroke="#a855f7" stroke-width="1.5" opacity="0.5"/>
  <line x1="32" y1="32" x2="20" y2="44" stroke="#a855f7" stroke-width="1.5" opacity="0.5"/>
  <line x1="32" y1="32" x2="44" y2="44" stroke="#a855f7" stroke-width="1.5" opacity="0.5"/>
</svg>
